<svg xmlns="http://www.w3.org/2000/svg" width="128" height="128" viewBox="0 0 128 128">
  <!-- Tile background: slate, rounded square -->
  <rect width="128" height="128" rx="20" fill="#1E293B"/>

  <!-- Speech bubble + M↓ glyph, harmonized with the activity-bar icon -->
  <g fill="none" stroke="#FFFFFF" stroke-width="5.5"
     stroke-linejoin="round" stroke-linecap="round">

    <!-- Speech bubble with tail at bottom-left -->
    <path d="M18 24 H110 a6 6 0 0 1 6 6 V78 a6 6 0 0 1 -6 6 H60 L36 104 V84 H18 a6 6 0 0 1 -6 -6 V30 a6 6 0 0 1 6 -6 z"/>

    <!-- "M" glyph -->
    <path d="M30 66 V42 l14 16 14 -16 V66"/>

    <!-- "↓" glyph: stem + arrowhead -->
    <path d="M82 42 V66"/>
    <path d="M72 56 82 66 92 56"/>
  </g>
</svg>
